# xmcd CD database file
#
# Track frame offsets:
#	150
#	14270
#	30675
#	46195
#	62785
#	73850
#	92760
#	105463
#	120188
#	132320
#
# Disc length: 1939 seconds
#
# Revision: 2
# Processed by: cddbd v1.4PL0 Copyright (c) Steve Scherf et al.
# Submitted via: CDex 1.51
#
DISCID=7e07910a
DTITLE=Λουδοβίκος των Ανωγείων - Ο Χαΐνης
DYEAR=1990
DGENRE=Greek
TTITLE0=Το Δάκρυ Της Χαράς
TTITLE1=Κόρη Στην Ακροποταμιά
TTITLE2=Ο Όρκος Της Αρετούσας
TTITLE3=Ο Ναύτης
TTITLE4=Οργανικό
TTITLE5=Ο Χαΐνης
TTITLE6=Το Κέντημα
TTITLE7=Μόνη Στο Μπαλκόνι
TTITLE8=Το Φως Του Φεγγαριού
TTITLE9=Μήλο Κόκκινο
EXTD=YEAR: 1990
EXTT0=
EXTT1=
EXTT2=
EXTT3=
EXTT4=
EXTT5=
EXTT6=
EXTT7=
EXTT8=
EXTT9=
PLAYORDER=
